<svg width="38" height="38" viewBox="0 0 38 38" fill="none" xmlns="http://www.w3.org/2000/svg">
<g clip-path="url(#clip0_61_1313)">
<path d="M13.545 5.58929C12.4811 5.56547 11.4416 5.91036 10.603 6.56547C9.76434 7.22058 9.17809 8.1456 8.94364 9.18364L8.2507 12.2561C10.2491 9.08194 13.6042 6.84888 17.5048 6.38841L14.4581 5.70217C14.1582 5.63458 13.8523 5.59714 13.545 5.59041V5.58929ZM19.0002 7.705C12.7615 7.705 7.70529 12.7612 7.70529 18.9999C7.70529 25.2375 12.7615 30.2949 19.0002 30.2949C25.2389 30.2949 30.2952 25.2364 30.2952 18.9999C30.2952 12.7612 25.2389 7.705 19.0002 7.705ZM25.7441 8.24929C28.9182 10.2488 31.1502 13.6051 31.6118 17.5034L32.2991 14.4567C32.4328 13.8659 32.4487 13.2545 32.346 12.6575C32.2432 12.0605 32.0239 11.4896 31.7005 10.9774C31.3771 10.4652 30.9559 10.0217 30.4611 9.67234C29.9663 9.32295 29.4074 9.07447 28.8165 8.94112L25.7441 8.24929ZM16.1771 11.2334C16.9261 11.2334 17.6445 11.531 18.1741 12.0606C18.7038 12.5903 19.0013 13.3087 19.0013 14.0577C19.0013 14.8068 18.7038 15.5251 18.1741 16.0548C17.6445 16.5844 16.9261 16.882 16.1771 16.882C15.4379 16.8673 14.7339 16.5633 14.2164 16.0354C13.6988 15.5074 13.4089 14.7976 13.4089 14.0583C13.4089 13.3189 13.6988 12.6091 14.2164 12.0811C14.7339 11.5532 15.4379 11.2481 16.1771 11.2334ZM23.9425 13.3525C24.6816 13.3672 25.3856 13.6711 25.9031 14.1991C26.4207 14.727 26.7106 15.4369 26.7106 16.1762C26.7106 16.9155 26.4207 17.6254 25.9031 18.1533C25.3856 18.6813 24.6816 18.9852 23.9425 18.9999C23.2033 18.9852 22.4994 18.6813 21.9818 18.1533C21.4643 17.6254 21.1744 16.9155 21.1744 16.1762C21.1744 15.4369 21.4643 14.727 21.9818 14.1991C22.4994 13.6711 23.2033 13.3672 23.9425 13.3525ZM19.0092 17.5559C19.1963 17.5572 19.3812 17.5957 19.5533 17.6691C19.7254 17.7425 19.8812 17.8494 20.0116 17.9836C20.142 18.1177 20.2445 18.2765 20.313 18.4506C20.3815 18.6247 20.4147 18.8107 20.4107 18.9977C20.4007 19.3651 20.2477 19.714 19.9844 19.9704C19.7212 20.2268 19.3683 20.3704 19.0008 20.3707C18.6333 20.371 18.2801 20.228 18.0164 19.972C17.7527 19.716 17.5993 19.3673 17.5886 18.9999C17.5843 18.8112 17.6179 18.6235 17.6874 18.448C17.7568 18.2724 17.8608 18.1126 17.9932 17.978C18.1255 17.8433 18.2835 17.7366 18.4579 17.6641C18.6322 17.5916 18.8193 17.5548 19.0081 17.5559H19.0092ZM14.058 18.9999C14.7972 19.0146 15.5011 19.3186 16.0187 19.8466C16.5362 20.3745 16.8261 21.0844 16.8261 21.8237C16.8261 22.563 16.5362 23.2728 16.0187 23.8008C15.5011 24.3287 14.7972 24.6327 14.058 24.6474C13.3188 24.6327 12.6149 24.3287 12.0973 23.8008C11.5798 23.2728 11.2899 22.563 11.2899 21.8237C11.2899 21.0844 11.5798 20.3745 12.0973 19.8466C12.6149 19.3186 13.3188 19.0146 14.058 18.9999ZM6.39094 20.4954L5.70023 23.5409C5.56661 24.1319 5.55074 24.7433 5.65352 25.3404C5.7563 25.9374 5.97572 26.5083 6.29924 27.0206C6.62276 27.5328 7.04404 27.9762 7.53901 28.3256C8.03398 28.6749 8.59294 28.9233 9.18394 29.0565L12.2552 29.7495C9.08111 27.75 6.84917 24.3959 6.3887 20.4954H6.39094ZM21.8245 21.1179C22.5637 21.1326 23.2676 21.4365 23.7852 21.9645C24.3027 22.4925 24.5926 23.2023 24.5926 23.9416C24.5926 24.6809 24.3027 25.3908 23.7852 25.9187C23.2676 26.4467 22.5637 26.7506 21.8245 26.7654C21.0854 26.7506 20.3814 26.4467 19.8639 25.9187C19.3463 25.3908 19.0564 24.6809 19.0564 23.9416C19.0564 23.2023 19.3463 22.4925 19.8639 21.9645C20.3814 21.4365 21.0854 21.1326 21.8245 21.1179ZM29.7509 25.7438C27.7514 28.9179 24.3962 31.1499 20.4968 31.6104L23.5423 32.2977C24.1331 32.4312 24.7444 32.447 25.3412 32.3442C25.9381 32.2414 26.5089 32.022 27.0209 31.6986C27.533 31.3752 27.9764 30.9541 28.3257 30.4594C28.675 29.9646 28.9235 29.4059 29.0568 28.8151L29.7509 25.7438Z" fill="#E2EBC0"/>
</g>
<defs>
<clipPath id="clip0_61_1313">
<rect width="26.8235" height="26.8235" fill="white" transform="translate(5.58826 5.58813)"/>
</clipPath>
</defs>
</svg>
