<svg width="24" height="24" viewBox="0 0 24 24" fill="none" xmlns="http://www.w3.org/2000/svg">
<g clip-path="url(#clip0_23_141)">
<path d="M19 11H7.14002L10.77 6.64003C10.9398 6.43581 11.0214 6.17253 10.997 5.90811C10.9727 5.64368 10.8442 5.39977 10.64 5.23003C10.4358 5.06029 10.1725 4.97863 9.9081 5.00301C9.64367 5.02739 9.39976 5.15581 9.23002 5.36003L4.23002 11.36C4.19638 11.4078 4.1663 11.4579 4.14002 11.51C4.14002 11.56 4.14002 11.59 4.07002 11.64C4.0247 11.7547 4.00096 11.8767 4.00002 12C4.00096 12.1233 4.0247 12.2454 4.07002 12.36C4.07002 12.41 4.07002 12.44 4.14002 12.49C4.1663 12.5422 4.19638 12.5923 4.23002 12.64L9.23002 18.64C9.32405 18.7529 9.44179 18.8437 9.57487 18.9059C9.70795 18.9681 9.85311 19.0003 10 19C10.2337 19.0005 10.4601 18.9191 10.64 18.77C10.7413 18.6861 10.825 18.583 10.8863 18.4666C10.9477 18.3503 10.9855 18.223 10.9976 18.092C11.0096 17.961 10.9958 17.829 10.9567 17.7034C10.9177 17.5777 10.8542 17.4611 10.77 17.36L7.14002 13H19C19.2652 13 19.5196 12.8947 19.7071 12.7071C19.8947 12.5196 20 12.2652 20 12C20 11.7348 19.8947 11.4805 19.7071 11.2929C19.5196 11.1054 19.2652 11 19 11Z" fill="currentColor"/>
</g>
<defs>
<clipPath id="clip0_23_141">
<rect width="24" height="24" fill="currentColor"/>
</clipPath>
</defs>
</svg>
