<svg width="32" height="26" viewBox="0 0 32 26" fill="none" xmlns="http://www.w3.org/2000/svg">
<path d="M30.5859 20.5546C30.6936 21.8964 30.3928 22.9212 29.6835 23.6288C28.9832 24.3365 27.9057 24.6903 26.4512 24.6903H5.17172C3.96857 24.6903 3.05275 24.3549 2.42424 23.684C1.80471 23.0131 1.47699 22.0343 1.44108 20.7476L6.49158 16.1432C6.76992 15.8858 7.04826 15.6974 7.3266 15.5779C7.60494 15.4493 7.90572 15.3849 8.22896 15.3849C8.53423 15.3849 8.83951 15.4539 9.14478 15.5917C9.45903 15.7204 9.75982 15.9088 10.0471 16.1569L12.5253 18.4454L18.5993 12.8897C18.9136 12.614 19.2368 12.4118 19.569 12.2831C19.9012 12.1453 20.2514 12.0764 20.6195 12.0764C20.9787 12.0764 21.3288 12.1453 21.67 12.2831C22.0112 12.421 22.33 12.6324 22.6263 12.9173L30.5859 20.5546ZM10.734 13.3446C10.1324 13.3446 9.58474 13.193 9.09091 12.8897C8.59708 12.5864 8.20202 12.182 7.90572 11.6766C7.60943 11.1619 7.46128 10.5967 7.46128 9.98091C7.46128 9.37434 7.60943 8.81831 7.90572 8.31283C8.20202 7.79816 8.59708 7.38918 9.09091 7.0859C9.58474 6.78261 10.1324 6.63096 10.734 6.63096C11.3356 6.63096 11.8788 6.78261 12.3636 7.0859C12.8575 7.38918 13.2525 7.79816 13.5488 8.31283C13.8451 8.81831 13.9933 9.37434 13.9933 9.98091C13.9933 10.5967 13.8451 11.1619 13.5488 11.6766C13.2525 12.182 12.8575 12.5864 12.3636 12.8897C11.8788 13.193 11.3356 13.3446 10.734 13.3446ZM4.56566 26C3.0752 26 1.93939 25.6048 1.15825 24.8144C0.386083 24.024 0 22.8798 0 21.3818V4.63203C0 3.11559 0.386083 1.96677 1.15825 1.18558C1.93939 0.395193 3.0752 0 4.56566 0H27.4478C28.9383 0 30.0696 0.395193 30.8417 1.18558C31.6139 1.97596 32 3.12478 32 4.63203V21.3818C32 22.8798 31.6139 24.024 30.8417 24.8144C30.0696 25.6048 28.9383 26 27.4478 26H4.56566ZM4.80808 22.9258H27.1919C27.7755 22.9258 28.2245 22.7741 28.5387 22.4708C28.853 22.1584 29.0101 21.685 29.0101 21.0509V4.9491C29.0101 4.31495 28.853 3.84164 28.5387 3.52916C28.2245 3.21668 27.7755 3.06045 27.1919 3.06045H4.80808C4.21549 3.06045 3.76206 3.21668 3.44781 3.52916C3.14254 3.84164 2.9899 4.31495 2.9899 4.9491V21.0509C2.9899 21.685 3.14254 22.1584 3.44781 22.4708C3.76206 22.7741 4.21549 22.9258 4.80808 22.9258Z" fill="currentColor" fill-opacity="0.18"/>
</svg>
