<svg width="26" height="24" viewBox="0 0 26 24" fill="none" xmlns="http://www.w3.org/2000/svg">
<path d="M23.625 2.79163V21.2083H2.375V2.79163H23.625ZM22.9167 0.666626H3.08333C1.51083 0.666626 0.25 1.94163 0.25 3.49996V20.5C0.25 22.0583 1.51083 23.3333 3.08333 23.3333H22.9167C24.475 23.3333 25.75 22.0583 25.75 20.5V3.49996C25.75 1.94163 24.475 0.666626 22.9167 0.666626ZM11.5833 10.5833H9.45833V9.87496H6.625V14.125H9.45833V13.4166H11.5833V14.8333C11.5833 15.6125 10.9458 16.25 10.1667 16.25H5.91667C5.1375 16.25 4.5 15.6125 4.5 14.8333V9.16663C4.5 8.38746 5.1375 7.74996 5.91667 7.74996H10.1667C10.9458 7.74996 11.5833 8.38746 11.5833 9.16663V10.5833ZM21.5 10.5833H19.375V9.87496H16.5417V14.125H19.375V13.4166H21.5V14.8333C21.5 15.6125 20.8625 16.25 20.0833 16.25H15.8333C15.0542 16.25 14.4167 15.6125 14.4167 14.8333V9.16663C14.4167 8.38746 15.0542 7.74996 15.8333 7.74996H20.0833C20.8625 7.74996 21.5 8.38746 21.5 9.16663V10.5833Z" fill="#E2EBC0"/>
</svg>
