<svg width="34" height="34" viewBox="0 0 34 34" fill="none" xmlns="http://www.w3.org/2000/svg">
<path d="M29.6749 11.7655C29.6593 10.6931 29.461 9.62914 29.0813 8.62614C28.4169 6.91339 27.064 5.55906 25.3512 4.89606C24.361 4.52348 23.3141 4.32373 22.2544 4.30106C20.8916 4.24014 20.4595 4.22314 17 4.22314C13.5405 4.22314 13.0971 4.22314 11.7441 4.30106C10.6859 4.32373 9.63898 4.52348 8.64873 4.89606C6.93598 5.55906 5.58164 6.91339 4.91864 8.62614C4.54606 9.61639 4.34489 10.6633 4.32506 11.7216C4.26414 13.0858 4.24573 13.5179 4.24573 16.9774C4.24573 20.4369 4.24573 20.8789 4.32506 22.2332C4.34631 23.2929 4.54606 24.3384 4.91864 25.3315C5.58306 27.0428 6.93598 28.3971 8.65014 29.0601C9.63614 29.4455 10.6831 29.6636 11.7456 29.6976C13.1098 29.7586 13.5419 29.777 17.0014 29.777C20.4609 29.777 20.9043 29.777 22.2572 29.6976C23.3155 29.6764 24.3624 29.4766 25.3541 29.1041C27.0668 28.4396 28.4197 27.0853 29.0841 25.374C29.4567 24.3823 29.6565 23.3368 29.6777 22.2757C29.7386 20.9129 29.7571 20.4808 29.7571 17.0199C29.7542 13.5604 29.7542 13.1212 29.6749 11.7655ZM16.9915 23.5196C13.3733 23.5196 10.4422 20.5885 10.4422 16.9703C10.4422 13.3521 13.3733 10.4211 16.9915 10.4211C20.6068 10.4211 23.5407 13.3521 23.5407 16.9703C23.5407 20.5885 20.6068 23.5196 16.9915 23.5196ZM23.8014 11.706C22.9556 11.706 22.2742 11.0231 22.2742 10.1788C22.2742 9.33448 22.9556 8.65164 23.8014 8.65164C24.6443 8.65164 25.3271 9.33448 25.3271 10.1788C25.3271 11.0231 24.6443 11.706 23.8014 11.706Z" fill="#E2EBC0"/>
<path d="M16.9915 21.2246C19.3411 21.2246 21.2457 19.3199 21.2457 16.9703C21.2457 14.6208 19.3411 12.7161 16.9915 12.7161C14.6419 12.7161 12.7372 14.6208 12.7372 16.9703C12.7372 19.3199 14.6419 21.2246 16.9915 21.2246Z" fill="#E2EBC0"/>
</svg>
