<svg width="34" height="34" viewBox="0 0 34 34" fill="none" xmlns="http://www.w3.org/2000/svg">
<path d="M8.5 26.0667V7.93337C8.5 7.46393 8.88056 7.08337 9.35 7.08337H13.3167C13.7861 7.08337 14.1667 7.46393 14.1667 7.93337V26.0667C14.1667 26.5362 13.7861 26.9167 13.3167 26.9167H9.35C8.88056 26.9167 8.5 26.5362 8.5 26.0667Z" stroke="#E2EBC0" stroke-width="1.5"/>
<path d="M19.8335 26.0667V7.93337C19.8335 7.46393 20.214 7.08337 20.6835 7.08337H24.6502C25.1196 7.08337 25.5002 7.46393 25.5002 7.93337V26.0667C25.5002 26.5362 25.1196 26.9167 24.6502 26.9167H20.6835C20.214 26.9167 19.8335 26.5362 19.8335 26.0667Z" stroke="#E2EBC0" stroke-width="1.5"/>
</svg>
