<svg width="44" height="44" viewBox="0 0 44 44" fill="none" xmlns="http://www.w3.org/2000/svg">
<path d="M18.8848 3.53032C20.5387 1.65602 23.4613 1.65602 25.1152 3.53032C26.1734 4.72961 27.8262 5.21491 29.3648 4.77813C31.7695 4.09553 34.2281 5.67558 34.6061 8.14649C34.848 9.72755 35.976 11.0293 37.5065 11.4938C39.8985 12.2196 41.1126 14.878 40.0947 17.1611C39.4434 18.6219 39.6885 20.3269 40.725 21.5451C42.3449 23.4488 41.9289 26.3417 39.8384 27.712C38.5007 28.5888 37.7851 30.1556 37.9984 31.7408C38.3319 34.2181 36.418 36.4268 33.9185 36.4493C32.3191 36.4638 30.87 37.395 30.1925 38.8439C29.1336 41.1082 26.3295 41.9316 24.2145 40.5992C22.8613 39.7466 21.1387 39.7466 19.7855 40.5992C17.6705 41.9316 14.8664 41.1082 13.8075 38.8439C13.13 37.395 11.6809 36.4638 10.0815 36.4493C7.58198 36.4268 5.66811 34.2181 6.00155 31.7408C6.21491 30.1556 5.49934 28.5888 4.16165 27.712C2.07106 26.3417 1.65513 23.4488 3.27498 21.5451C4.31146 20.3269 4.5566 18.6219 3.9053 17.1611C2.88743 14.878 4.1015 12.2196 6.49347 11.4938C8.024 11.0293 9.15202 9.72755 9.3939 8.1465C9.77191 5.67558 12.2305 4.09553 14.6352 4.77813C16.1738 5.21491 17.8266 4.72961 18.8848 3.53032Z" fill="#E2EBC0"/>
<path d="M12.1633 21.704H13.8553C15.2713 21.704 15.8233 21.056 15.8233 20.024C15.8233 18.944 15.2713 18.32 13.8553 18.32H12.1633V21.704ZM16.6873 20.024C16.6873 21.38 15.8233 22.424 13.8553 22.424H12.1633V26H11.3233V17.612H13.8553C15.7993 17.612 16.6873 18.644 16.6873 20.024ZM22.6087 20.048C22.6087 18.992 22.0327 18.32 20.6167 18.32H18.9367V21.812H20.6287C21.9967 21.812 22.6087 21.068 22.6087 20.048ZM18.0967 17.612H20.6167C22.5607 17.612 23.4727 18.668 23.4727 20.048C23.4727 21.2 22.8247 22.172 21.4087 22.436L23.5687 26H22.5607L20.4847 22.496H18.9367V26H18.0967V17.612ZM33.0597 21.8C33.0597 24.32 31.2717 26.084 28.9077 26.084C26.5557 26.084 24.7557 24.32 24.7557 21.8C24.7557 19.292 26.5557 17.516 28.9077 17.516C31.2717 17.516 33.0597 19.292 33.0597 21.8ZM25.6197 21.8C25.6197 23.996 27.0477 25.352 28.9077 25.352C30.7677 25.352 32.1957 23.996 32.1957 21.8C32.1957 19.604 30.7677 18.26 28.9077 18.26C27.0477 18.26 25.6197 19.604 25.6197 21.8Z" fill="#203933"/>
</svg>
