<svg width="38" height="38" viewBox="0 0 38 38" fill="none" xmlns="http://www.w3.org/2000/svg">
<path fill-rule="evenodd" clip-rule="evenodd" d="M19.0001 5.93749C11.7801 5.93749 5.93755 11.78 5.93755 19C5.93755 26.2042 11.7801 32.0625 19.0001 32.0625C26.2042 32.0625 32.0626 26.2042 32.0626 19C32.0626 17.48 31.7934 16.0392 31.3342 14.6933C31.1126 14.06 31.4451 13.395 32.0626 13.1733C32.6801 12.9517 33.3451 13.2842 33.5667 13.9017C34.1051 15.485 34.4059 17.195 34.4059 18.9683C34.4059 27.4867 27.4867 34.4058 18.9684 34.4058C10.4342 34.4058 3.53088 27.4867 3.53088 18.9683C3.53088 10.4342 10.4342 3.53082 18.9684 3.53082C22.9267 3.53082 26.5526 5.01916 29.2759 7.48916C29.7509 7.91666 29.7984 8.67666 29.3551 9.15166C28.9117 9.62666 28.1517 9.67416 27.6767 9.23082C25.3492 7.14082 22.2934 5.87416 18.9367 5.87416L19.0001 5.93749Z" fill="currentColor"/>
<path fill-rule="evenodd" clip-rule="evenodd" d="M19 12.2708C17.0208 12.2708 15.4375 13.8541 15.4375 15.8333C15.4375 17.7966 17.0208 19.3958 19 19.3958C20.9633 19.3958 22.5625 17.7966 22.5625 15.8333C22.5625 13.8541 20.9633 12.2708 19 12.2708ZM13.0625 15.8333C13.0625 12.54 15.7067 9.89581 19 9.89581C22.2775 9.89581 24.9375 12.54 24.9375 15.8333C24.9375 19.1108 22.2775 21.7708 19 21.7708C15.7067 21.7708 13.0625 19.1108 13.0625 15.8333Z" fill="currentColor"/>
<path fill-rule="evenodd" clip-rule="evenodd" d="M19.0001 25.7291C15.4693 25.7291 12.3818 27.5658 10.6243 30.3366C10.2601 30.8908 9.53178 31.0491 8.97761 30.7008C8.40761 30.3366 8.24927 29.6083 8.59761 29.0541C10.7668 25.6025 14.5984 23.3225 18.9684 23.3225C23.3384 23.3225 27.1701 25.6025 29.3393 29.0383C29.6876 29.5925 29.5134 30.3208 28.9593 30.6691C28.3893 31.0175 27.6609 30.8433 27.3126 30.2891C25.5551 27.5025 22.4518 25.6658 18.9368 25.6658L19.0001 25.7291Z" fill="currentColor"/>
</svg>
