<svg width="14" height="14" viewBox="0 0 14 14" fill="none" xmlns="http://www.w3.org/2000/svg">
<path fill-rule="evenodd" clip-rule="evenodd" d="M6.99418 0.874999C7.08752 0.874999 7.17502 0.921666 7.23335 0.997499L9.22835 3.90833L12.6175 4.90583C12.705 4.92917 12.7808 4.99917 12.81 5.0925C12.8392 5.18 12.8217 5.27917 12.7633 5.355L10.605 8.155L10.6983 11.6842C10.6983 11.7775 10.6517 11.8708 10.5758 11.9233C10.4942 11.9758 10.395 11.9933 10.3017 11.9583L6.96502 10.7683L3.62835 11.9525C3.53502 11.9817 3.43585 11.97 3.35418 11.9117C3.27252 11.8533 3.22585 11.76 3.23168 11.6667L3.32502 8.13167L1.16668 5.32583C1.10252 5.24417 1.08502 5.145 1.12002 5.0575C1.14918 4.96417 1.21918 4.89417 1.31252 4.865L4.70168 3.86167L6.69668 0.944999C6.74918 0.863332 6.83668 0.816666 6.93585 0.816666L6.99418 0.874999ZM6.99418 1.68L5.17418 4.32833C5.13335 4.38083 5.07502 4.42167 5.01085 4.43917L1.92502 5.34333L3.87918 7.88667C3.92002 7.93917 3.93752 8.00333 3.93752 8.0675L3.84418 11.2758L6.87168 10.1967C6.93002 10.1733 7.00002 10.1733 7.06418 10.1967L10.0917 11.27L9.99835 8.05583C9.99252 7.98583 10.0159 7.92167 10.0567 7.86917L12.0108 5.32L8.92502 4.41C8.85502 4.38667 8.80252 4.34583 8.76168 4.29333L6.94168 1.63917L6.99418 1.68Z" fill="white" fill-opacity="0.1"/>
</svg>
