<svg width="24" height="24" viewBox="0 0 24 24" fill="none" xmlns="http://www.w3.org/2000/svg">
<path fill-rule="evenodd" clip-rule="evenodd" d="M7.49995 1.5C7.65995 1.5 7.80995 1.58 7.90995 1.71L9.73995 4.39L12.8599 5.3C13.0099 5.34 13.1399 5.46 13.1899 5.62C13.2399 5.77 13.2099 5.94 13.1099 6.07L11.1199 8.64L11.1999 11.89C11.1999 12.05 11.1199 12.21 10.9899 12.3C10.8499 12.39 10.6799 12.42 10.5199 12.36L7.44995 11.27L4.37995 12.36C4.21995 12.41 4.04995 12.39 3.90995 12.29C3.76995 12.19 3.68995 12.03 3.69995 11.87L3.77995 8.61L1.78995 6.03C1.67995 5.89 1.64995 5.72 1.70995 5.57C1.75995 5.41 1.87995 5.29 2.03995 5.24L5.15995 4.32L6.98995 1.63C7.07995 1.49 7.22995 1.41 7.39995 1.41L7.49995 1.5ZM7.49995 2.88L5.96995 5.1C5.89995 5.19 5.79995 5.26 5.68995 5.29L3.08995 6.05L4.72995 8.19C4.79995 8.28 4.82995 8.39 4.82995 8.5L4.74995 11.2L7.28995 10.29C7.38995 10.25 7.50995 10.25 7.61995 10.29L10.1599 11.19L10.0799 8.48C10.0699 8.36 10.1099 8.25 10.1799 8.16L11.8199 6.01L9.21995 5.24C9.09995 5.2 9.00995 5.13 8.93995 5.04L7.40995 2.81L7.49995 2.88Z" fill="currentColor" fill-opacity="0.1"/>
<path fill-rule="evenodd" clip-rule="evenodd" d="M16.4999 10.5C16.6599 10.5 16.8099 10.58 16.9099 10.71L18.7399 13.39L21.8599 14.3C22.0099 14.34 22.1399 14.46 22.1899 14.62C22.2399 14.77 22.2099 14.94 22.1099 15.07L20.1199 17.64L20.1999 20.89C20.1999 21.05 20.1199 21.21 19.9899 21.3C19.8499 21.39 19.6799 21.42 19.5199 21.36L16.4499 20.27L13.3799 21.36C13.2199 21.41 13.0499 21.39 12.9099 21.29C12.7699 21.19 12.6899 21.03 12.6999 20.87L12.7799 17.61L10.7899 15.03C10.6799 14.89 10.6499 14.72 10.7099 14.57C10.7599 14.41 10.8799 14.29 11.0399 14.24L14.1599 13.32L15.9899 10.63C16.0799 10.49 16.2299 10.41 16.3999 10.41L16.4999 10.5ZM16.4999 11.88L14.9699 14.1C14.8999 14.19 14.7999 14.26 14.6899 14.29L12.0899 15.05L13.7299 17.19C13.7999 17.28 13.8299 17.39 13.8299 17.5L13.7499 20.2L16.2899 19.29C16.3899 19.25 16.5099 19.25 16.6199 19.29L19.1599 20.19L19.0799 17.48C19.0699 17.36 19.1099 17.25 19.1799 17.16L20.8199 15.01L18.2199 14.24C18.0999 14.2 18.0099 14.13 17.9399 14.04L16.4099 11.81L16.4999 11.88Z" fill="currentColor" fill-opacity="0.1"/>
</svg>
