<svg width="24" height="24" viewBox="0 0 24 24" fill="none" xmlns="http://www.w3.org/2000/svg">
<path fill-rule="evenodd" clip-rule="evenodd" d="M21 11C22.1 11 23 11.89 23 13V17C23 18.1 22.1 19 21 19H20V21C20 21.37 19.78 21.72 19.44 21.89C19.1 22.05 18.69 22.02 18.39 21.79L14.65 18.99H10.98C9.86998 18.99 8.97998 18.09 8.97998 16.99V12.99C8.97998 11.88 9.86998 10.99 10.98 10.99H20.98L21 11Z" fill="currentColor"/>
<path fill-rule="evenodd" clip-rule="evenodd" d="M3 0.99999C1.89 0.99999 1 1.88999 1 2.99999V6.99999C1 8.09999 1.89 8.99999 3 8.99999H4V11C4 11.37 4.21 11.72 4.55 11.89C4.88 12.05 5.29 12.02 5.59 11.79L9.32 8.98999H12.98C14.08 8.98999 14.98 8.08999 14.98 6.98999V2.98999C14.98 1.87999 14.08 0.98999 12.98 0.98999H2.98L3 0.99999Z" fill="currentColor"/>
</svg>
