<svg width="34" height="34" viewBox="0 0 34 34" fill="none" xmlns="http://www.w3.org/2000/svg">
<g clip-path="url(#clip0_22_102)">
<path d="M31.9919 9.21988C30.5761 7.48269 25.6089 4.30847 17 4.30847C8.39112 4.30847 3.42393 7.48269 2.00815 9.21988C0.592368 10.9571 0.523305 12.9785 0.592368 14.4155C0.595024 14.4952 0.608305 14.6147 0.632212 14.7528C0.799555 15.7118 1.08909 16.3997 5.02034 16.3997C9.21455 16.3997 9.6794 15.3664 9.70596 14.6094C9.74846 13.3769 9.89455 11.7433 10.4497 11.398C11.1031 10.9969 11.6636 9.56253 17 9.47753C22.3364 9.56253 22.8969 10.9969 23.553 11.4007C24.1108 11.746 24.2542 13.3769 24.2967 14.6121C24.3233 15.3691 24.7881 16.4024 28.9824 16.4024C32.911 16.4024 33.2031 15.7118 33.3705 14.7555C33.3944 14.6174 33.405 14.4978 33.4103 14.4182C33.4767 12.9785 33.4103 10.9597 31.9919 9.21988Z" fill="#D32F2F"/>
<path d="M28.9824 17.4648C26.4722 17.4648 23.5796 17.1726 23.5025 14.9042C23.4866 14.4632 23.8319 14.094 24.2702 14.0807C24.7058 14.0648 25.0777 14.4101 25.0936 14.8484C25.1042 15.1565 25.5053 15.871 28.9824 15.871C33.1075 15.871 33.4263 14.256 33.4263 14.256C33.6892 14.9042 34.2975 17.2337 28.9824 17.4648Z" fill="#A31919"/>
<path d="M5.01502 17.1992C7.52518 17.1992 10.4178 16.907 10.4949 14.6385C10.5108 14.1976 10.1655 13.8284 9.72721 13.8151C9.29159 13.7992 8.91971 14.1445 8.90377 14.5828C8.89315 14.8909 8.49205 15.6054 5.01502 15.6054C0.889867 15.6054 0.571117 13.9904 0.571117 13.9904C0.316117 14.5828 -0.300133 16.9681 5.01502 17.1992Z" fill="#A31919"/>
<path d="M26.0419 7.998C24.6447 7.41894 21.8477 6.63269 17 6.63269C12.1524 6.63269 9.35799 7.41894 7.95815 7.998C7.49862 8.1866 7.45612 8.81347 7.88112 9.07113C8.67534 9.55457 9.66346 10.4763 9.91846 12.1577C9.92643 12.2135 9.94237 12.2639 9.95831 12.3144C10.0699 11.8788 10.2239 11.5388 10.4444 11.4033C11.1031 10.9969 11.6636 9.56253 17 9.47753C22.3364 9.56253 22.8969 10.9969 23.553 11.4007C23.7735 11.5361 23.9275 11.8761 24.0391 12.3118C24.055 12.2613 24.071 12.2108 24.0789 12.155C24.3339 10.4763 25.3221 9.55191 26.1163 9.06847C26.5413 8.81347 26.5014 8.1866 26.0419 7.998Z" fill="#A31919"/>
<path d="M31.7528 12.3117C31.2083 10.9809 30.7435 10.4257 29.1975 9.81479C28.6397 9.59433 28.305 9.18526 28.4432 8.84526C28.5813 8.50526 28.9425 8.38573 29.5189 8.53714C31.1366 8.95683 32.3691 10.4735 32.3717 12.2532C32.3691 13.082 31.9653 12.8296 31.7528 12.3117Z" fill="#FF5252"/>
<path d="M2.76518 9.6449C2.86612 9.98225 3.52487 9.70068 4.3244 9.63693C5.43206 9.54928 5.75877 9.89459 6.25018 10.4099C6.6619 10.8429 7.25159 10.8508 7.4694 10.556C7.68987 10.2612 7.55971 9.93443 7.17987 9.4749C6.89831 9.13225 5.6844 8.31678 3.89143 8.80022C3.48502 8.91444 2.65893 9.28897 2.76518 9.6449Z" fill="#FF5252"/>
<path d="M5.01768 25.3937V31.0489C5.01768 32.0901 5.91549 32.9348 7.02049 32.9348H26.9796C28.0846 32.9348 28.9824 32.0901 28.9824 31.0489V25.2635L5.01768 25.3937Z" fill="#B93221"/>
<path d="M28.9239 24.4429C28.9239 24.4429 26.8494 14.7954 26.5147 13.09C26.18 11.3847 25.5983 10.8827 24.6155 10.8668C23.9541 10.8561 23.2555 10.4019 23.1386 9.58645C23.0217 8.78161 22.9952 8.30879 22.9474 7.95286C22.8996 7.59692 22.9128 7.07629 22.4028 7.07629H21.3908C20.9392 7.07629 20.9021 7.16395 20.8277 7.80145C20.7533 8.44161 20.6524 9.67411 20.4027 10.2904C20.1875 10.819 19.6191 10.8668 19.295 10.8668H14.7024C14.381 10.8668 13.8099 10.819 13.5947 10.2904C13.345 9.67411 13.2414 8.43895 13.1697 7.80145C13.0953 7.16129 13.0581 7.07629 12.6066 7.07629H11.5946C11.0872 7.07629 11.1005 7.59692 11.05 7.95286C11.0022 8.30879 10.9756 8.78161 10.8588 9.58645C10.7392 10.4019 10.0433 10.8561 9.3819 10.8668C8.39908 10.8827 7.81736 11.3847 7.48268 13.09C7.14799 14.7954 5.07346 24.4429 5.07346 24.4429C4.79455 26.3208 5.44533 27.1071 8.81346 27.1071H25.1813C28.5547 27.1071 29.2055 26.3208 28.9239 24.4429Z" fill="#FF5252"/>
<path d="M23.5078 15.6214L22.5197 14.009L20.331 13.6318L19.5341 14.1073C19.3481 14.2189 19.1171 14.2109 18.9364 14.094L18.5247 13.8231L15.4939 13.847L15.1778 14.0754C14.9946 14.2082 14.7475 14.2162 14.5563 14.0993L13.8285 13.6531L10.4922 15.6214L9.30487 22.3948L9.36065 23.6193C9.37127 23.869 9.57846 24.0656 9.82815 24.0656H24.1746C24.4242 24.0656 24.6314 23.869 24.6421 23.6193L24.6978 22.3948L23.5078 15.6214Z" fill="#4E342E"/>
<path d="M20.8888 19.2445H23.6274C23.885 19.2445 24.0816 19.0108 24.0364 18.7585L23.7841 17.3108C23.7496 17.1116 23.5769 16.9681 23.375 16.9681H20.7188C20.4691 16.9681 20.2778 17.186 20.3071 17.433L20.4797 18.8806C20.501 19.0878 20.6789 19.2445 20.8888 19.2445Z" fill="#F5F5F5"/>
<path d="M15.7755 16.0412H18.2591C18.4955 16.0412 18.6867 15.842 18.6735 15.6056L18.5911 14.0251C18.5805 13.8046 18.3972 13.632 18.1767 13.632H15.8578C15.6374 13.632 15.4541 13.8046 15.4435 14.0251L15.3611 15.6056C15.3478 15.842 15.5391 16.0412 15.7755 16.0412Z" fill="#F5F5F5"/>
<path d="M18.5274 20.4425H15.5072C15.2867 20.4425 15.1035 20.6152 15.0928 20.8356L15.0185 22.2833C15.0052 22.5197 15.1964 22.7189 15.4328 22.7189H18.6017C18.8381 22.7189 19.0294 22.5197 19.0161 22.2833L18.9417 20.8356C18.9311 20.6152 18.7478 20.4425 18.5274 20.4425Z" fill="#F5F5F5"/>
<path d="M15.6161 19.2445H18.4158C18.6522 19.2445 18.8435 19.0453 18.8302 18.8089L18.7558 17.3613C18.7452 17.1408 18.5619 16.9681 18.3414 16.9681H15.6905C15.47 16.9681 15.2867 17.1408 15.2761 17.3613L15.2017 18.8089C15.1911 19.0453 15.3797 19.2445 15.6161 19.2445Z" fill="#F5F5F5"/>
<path d="M12.8855 20.4425H9.99549C9.79362 20.4425 9.62096 20.5886 9.58643 20.7852L9.33408 22.2328C9.28893 22.4878 9.48549 22.7189 9.74315 22.7189H12.7155C12.9253 22.7189 13.1033 22.5622 13.1272 22.3523L13.2999 20.9047C13.3264 20.6603 13.1352 20.4425 12.8855 20.4425Z" fill="#F5F5F5"/>
<path d="M10.3727 19.2446H13.1431C13.353 19.2446 13.531 19.0879 13.5549 18.8781L13.7275 17.4304C13.7567 17.1834 13.5655 16.9656 13.3158 16.9656H10.6277C10.4258 16.9656 10.2531 17.1117 10.2186 17.3082L9.96627 18.7559C9.91846 19.0109 10.115 19.2446 10.3727 19.2446Z" fill="#F5F5F5"/>
<path d="M20.5222 16.0412H23.0881C23.3458 16.0412 23.5424 15.8074 23.4972 15.5551L23.221 13.9746C23.1864 13.7754 23.0138 13.632 22.8119 13.632H20.3336C20.0839 13.632 19.8927 13.8498 19.9219 14.0968L20.1105 15.6773C20.1344 15.8845 20.3124 16.0412 20.5222 16.0412Z" fill="#F5F5F5"/>
<path d="M13.9241 15.6746L14.1127 14.0941C14.1419 13.8471 13.9506 13.6293 13.701 13.6293H11.1881C10.9863 13.6293 10.8136 13.7754 10.7791 13.9719L10.5028 15.5524C10.4577 15.8074 10.6542 16.0385 10.9119 16.0385H13.5124C13.7222 16.0411 13.9002 15.8844 13.9241 15.6746Z" fill="#F5F5F5"/>
<path d="M20.7347 20.9074L20.9074 22.3551C20.9313 22.5649 21.1092 22.7216 21.3191 22.7216H24.2569C24.5146 22.7216 24.7111 22.4879 24.666 22.2355L24.4136 20.7879C24.3791 20.5887 24.2064 20.4452 24.0046 20.4452H21.1464C20.8994 20.4426 20.7055 20.6604 20.7347 20.9074Z" fill="#F5F5F5"/>
</g>
<defs>
<clipPath id="clip0_22_102">
<rect width="34" height="34" fill="white"/>
</clipPath>
</defs>
</svg>
