<svg width="34" height="34" viewBox="0 0 34 34" fill="none" xmlns="http://www.w3.org/2000/svg">
<g clip-path="url(#clip0_64_1785)">
<path d="M27.625 6.375V10.625H6.375V6.375H27.625ZM27.625 4.25H6.375C5.81141 4.25 5.27091 4.47388 4.8724 4.8724C4.47388 5.27091 4.25 5.81141 4.25 6.375V10.625C4.25 11.1886 4.47388 11.7291 4.8724 12.1276C5.27091 12.5261 5.81141 12.75 6.375 12.75H27.625C28.1886 12.75 28.7291 12.5261 29.1276 12.1276C29.5261 11.7291 29.75 11.1886 29.75 10.625V6.375C29.75 5.81141 29.5261 5.27091 29.1276 4.8724C28.7291 4.47388 28.1886 4.25 27.625 4.25Z" fill="#E2EBC0"/>
<path d="M10.625 17V27.625H6.375V17H10.625ZM10.625 14.875H6.375C5.81141 14.875 5.27091 15.0989 4.8724 15.4974C4.47388 15.8959 4.25 16.4364 4.25 17V27.625C4.25 28.1886 4.47388 28.7291 4.8724 29.1276C5.27091 29.5261 5.81141 29.75 6.375 29.75H10.625C11.1886 29.75 11.7291 29.5261 12.1276 29.1276C12.5261 28.7291 12.75 28.1886 12.75 27.625V17C12.75 16.4364 12.5261 15.8959 12.1276 15.4974C11.7291 15.0989 11.1886 14.875 10.625 14.875Z" fill="#E2EBC0"/>
<path d="M27.625 17V27.625H17V17H27.625ZM27.625 14.875H17C16.4364 14.875 15.8959 15.0989 15.4974 15.4974C15.0989 15.8959 14.875 16.4364 14.875 17V27.625C14.875 28.1886 15.0989 28.7291 15.4974 29.1276C15.8959 29.5261 16.4364 29.75 17 29.75H27.625C28.1886 29.75 28.7291 29.5261 29.1276 29.1276C29.5261 28.7291 29.75 28.1886 29.75 27.625V17C29.75 16.4364 29.5261 15.8959 29.1276 15.4974C28.7291 15.0989 28.1886 14.875 27.625 14.875Z" fill="#E2EBC0"/>
</g>
<defs>
<clipPath id="clip0_64_1785">
<rect width="34" height="34" fill="white"/>
</clipPath>
</defs>
</svg>
