<svg width="34" height="34" viewBox="0 0 34 34" fill="none" xmlns="http://www.w3.org/2000/svg">
<path d="M33.286 8.78805C32.8822 7.35473 31.7645 6.23061 30.3248 5.83323C27.6739 5.12455 17.017 5.12455 17.017 5.12455C17.017 5.12455 6.38031 5.10755 3.70175 5.83323C2.2695 6.23167 1.14644 7.35473 0.746936 8.78805C0.244374 11.5049 -0.005314 14.2546 0.0063735 17.0171C0.001061 19.7615 0.249686 22.507 0.746936 25.2069C1.14644 26.6402 2.2695 27.7643 3.70175 28.168C6.35269 28.8767 17.017 28.8767 17.017 28.8767C17.017 28.8767 27.6473 28.8767 30.3248 28.168C31.7645 27.7643 32.8822 26.6412 33.286 25.2069C33.7737 22.507 34.0117 19.7615 33.9947 17.0171C34.0117 14.2546 33.779 11.5049 33.286 8.78805ZM13.6127 22.1033V11.9086L22.4836 17.0171L13.6127 22.1033Z" fill="#E2EBC0"/>
</svg>
